<?xml version="1.0" encoding="UTF-8"?>
<svg version="1.1" xmlns="http://www.w3.org/2000/svg" width="2073" height="340">
<path d="M0 0 C57.42 0 114.84 0 174 0 C174 16.17 174 32.34 174 49 C134.73 49 95.46 49 55 49 C55 101.14 55 153.28 55 207 C87.01 207 119.02 207 152 207 C152 222.18 152 237.36 152 253 C119.99 253 87.98 253 55 253 C55 265.21 55 277.42 55 290 C94.27 290 133.54 290 174 290 C174 305.84 174 321.68 174 338 C116.58 338 59.16 338 0 338 C0 226.46 0 114.92 0 0 Z " fill="#FFFFFF" transform="translate(1899,2)"/>
<path d="M0 0 C133.4910193 0 133.4910193 0 164.421875 30.390625 C165.27265625 31.25171875 166.1234375 32.1128125 167 33 C167.99773437 33.98226562 167.99773437 33.98226562 169.015625 34.984375 C186.70538518 53.63033843 190.8345207 80.53088183 190.28515625 105.1796875 C189.37984544 128.41473562 181.29858041 149.93873208 164 166 C158.13313084 170.80172747 151.91131132 174.98516533 145.27563477 178.64306641 C144.472715 179.08647369 143.66979523 179.52988098 142.84254456 179.98672485 C142.23450485 180.32110565 141.62646515 180.65548645 141 181 C141.31001953 181.45876526 141.62003906 181.91753052 141.93945312 182.39019775 C151.30564485 196.25159912 160.65786176 210.12237678 170 224 C170.62440979 224.92717834 171.24881958 225.85435669 171.89215088 226.80963135 C175.34483285 231.93731438 178.79256367 237.06825289 182.23217773 242.20471191 C183.28525162 243.77586301 184.33993878 245.345934 185.39624023 246.91491699 C186.85839498 249.08750966 188.31472942 251.2638857 189.76953125 253.44140625 C190.20248001 254.08209549 190.63542877 254.72278473 191.08149719 255.38288879 C194 259.77149605 194 259.77149605 194 262 C185.92443481 262.25568196 177.8505782 262.45070702 169.7719574 262.56993389 C166.01985047 262.62718152 162.27052509 262.7047044 158.52001953 262.82983398 C154.89523389 262.95000225 151.27310893 263.01524812 147.64648438 263.04364967 C146.26829116 263.0638658 144.89023255 263.10335302 143.51318359 263.16303062 C132.76439133 263.61001946 132.76439133 263.61001946 128.44259644 259.66635132 C126.37700657 256.86138642 124.66810882 254.05492193 123 251 C121.84671068 249.20656792 120.68417147 247.41901035 119.5078125 245.640625 C118.37700795 243.84576233 117.24945933 242.04884467 116.125 240.25 C109.54525408 229.71558755 109.54525408 229.71558755 102.56713867 219.4440918 C100.25544845 216.1606024 98.55992403 213.0545432 97.1015625 209.3046875 C94.90199802 204.21456329 92.95535207 199.84918118 88 197 C77.04759354 194.82103241 66.09356639 196.2545825 55 197 C55 218.45 55 239.9 55 262 C36.85 262 18.7 262 0 262 C0 175.54 0 89.08 0 0 Z M55 49 C55 82 55 115 55 149 C91.8003665 150.52929639 91.8003665 150.52929639 122.875 134.3203125 C132.65281717 123.64379889 134.31004226 110.37441406 134.1484375 96.36328125 C133.57567261 83.38563456 130.32404218 71.38372164 121.07421875 61.89453125 C103.6022229 45.93611696 76.27871586 49 55 49 Z " fill="#FFFFFF" transform="translate(1359,2)"/>
<path d="M0 0 C57.09 0 114.18 0 173 0 C173 16.17 173 32.34 173 49 C133.73 49 94.46 49 54 49 C54 101.14 54 153.28 54 207 C86.01 207 118.02 207 151 207 C151 222.18 151 237.36 151 253 C118.99 253 86.98 253 54 253 C54 265.21 54 277.42 54 290 C93.27 290 132.54 290 173 290 C173 305.84 173 321.68 173 338 C115.91 338 58.82 338 0 338 C0 226.46 0 114.92 0 0 Z " fill="#FFFFFF" transform="translate(1644,2)"/>
<path d="M0 0 C1.98 0 3.96 0 6 0 C14.78336487 18.89772847 23.5282217 37.80732577 31.9375 56.875 C38.03496939 70.69864128 44.33535268 84.41912631 50.71798706 98.11322021 C56.60493026 110.75037714 62.34597866 123.44228811 67.96923828 136.19873047 C73.33737386 148.3666842 78.88186749 160.44560958 84.5 172.5 C91.21034487 186.90022334 97.77395308 201.35538732 104.1875 215.89013672 C107.52471804 223.44946687 110.89236996 230.99266392 114.328125 238.5078125 C114.68062317 239.27933655 115.03312134 240.0508606 115.39630127 240.84576416 C117.08584978 244.5410082 118.78042666 248.23385076 120.48144531 251.92382812 C121.08147797 253.23302812 121.68141822 254.54227046 122.28125 255.8515625 C122.80783203 256.99447754 123.33441406 258.13739258 123.87695312 259.31494141 C125 262 125 262 125 264 C105.86 264 86.72 264 67 264 C63.04 254.43 59.08 244.86 55 235 C20.35 234.67 -14.3 234.34 -50 234 C-50.99 237.3 -51.98 240.6 -53 244 C-53.63351022 245.71287262 -54.2939775 247.41667219 -55.0078125 249.09765625 C-55.52794922 250.32838867 -55.52794922 250.32838867 -56.05859375 251.58398438 C-56.41050781 252.40189453 -56.76242187 253.21980469 -57.125 254.0625 C-57.66447266 255.34157227 -57.66447266 255.34157227 -58.21484375 256.64648438 C-60.85770631 262.85770631 -60.85770631 262.85770631 -62 264 C-63.65738443 264.09346915 -65.31874644 264.11744977 -66.97875977 264.11352539 C-68.03978409 264.11344986 -69.10080841 264.11337433 -70.19398499 264.11329651 C-71.92520851 264.10555458 -71.92520851 264.10555458 -73.69140625 264.09765625 C-74.86638168 264.0962413 -76.04135712 264.09482635 -77.25193787 264.09336853 C-81.02215064 264.08774992 -84.79230504 264.07519426 -88.5625 264.0625 C-91.11132727 264.0574874 -93.66015547 264.05292408 -96.20898438 264.04882812 C-102.47267633 264.03777444 -108.73633399 264.02101821 -115 264 C-113.52028988 259.30864631 -111.69732053 254.82199078 -109.71875 250.32421875 C-109.23102364 249.20711517 -109.23102364 249.20711517 -108.73344421 248.06744385 C-107.6581382 245.60635692 -106.57908569 243.14693176 -105.5 240.6875 C-104.7345748 238.93767196 -103.96936074 237.18775154 -103.2043457 235.43774414 C-97.50957114 222.41748003 -91.79019968 209.40796225 -86.07128906 196.39828491 C-80.01233652 182.61406936 -73.99676578 168.81137252 -68 155 C-61.63499219 140.34051567 -55.24455143 125.69269691 -48.8125 111.0625 C-43.00053017 97.84212854 -37.20543264 84.61464893 -31.4375 71.375 C-31.09203125 70.58217621 -30.7465625 69.78935242 -30.390625 68.97250366 C-26.76873067 60.66014171 -23.15010988 52.34636206 -19.53544617 44.03085327 C-17.99836898 40.49543321 -16.46020385 36.96048702 -14.92190552 33.42559814 C-14.19550313 31.75555003 -13.46963219 30.08527064 -12.74435425 28.41473389 C-8.60842485 18.88843513 -4.40618577 9.4052528 0 0 Z M2 101 C-0.0524912 105.62705877 -1.77986745 110.20572556 -3.28515625 115.046875 C-10.4601649 137.67658178 -19.12857357 159.46926335 -28.56217957 181.25022888 C-30.24496031 184.51721395 -30.24496031 184.51721395 -31 188 C-9.22 188 12.56 188 35 188 C33.10463275 181.68210918 31.27745847 175.92146473 28.62890625 169.9765625 C27.97002584 168.4623607 27.31202271 166.94777693 26.65478516 165.43286133 C26.31312317 164.64891998 25.97146118 163.86497864 25.6194458 163.05728149 C18.78383942 147.32693951 12.83961824 131.47692465 7.63110352 115.13720703 C7.39810043 114.40858963 7.16509735 113.67997223 6.92503357 112.92927551 C6.30141735 110.9690923 5.68768724 109.00577158 5.07470703 107.04223633 C4.0981268 103.88082323 4.0981268 103.88082323 2 101 Z " fill="#FFFFFF" transform="translate(330,0)"/>
<path d="M0 0 C67.32 0 134.64 0 204 0 C204 16.17 204 32.34 204 49 C179.25 49 154.5 49 129 49 C129 144.37 129 239.74 129 338 C110.85 338 92.7 338 74 338 C74 242.63 74 147.26 74 49 C49.58 49 25.16 49 0 49 C0 32.83 0 16.66 0 0 Z " fill="#FFFFFF" transform="translate(1098,2)"/>
<path d="M0 0 C67.32 0 134.64 0 204 0 C204 16.17 204 32.34 204 49 C179.25 49 154.5 49 129 49 C129 144.37 129 239.74 129 338 C111.18 338 93.36 338 75 338 C75 242.63 75 147.26 75 49 C50.25 49 25.5 49 0 49 C0 32.83 0 16.66 0 0 Z " fill="#FFFFFF" transform="translate(0,2)"/>
<path d="M0 0 C18.15 0 36.3 0 55 0 C55 95.7 55 191.4 55 290 C93.94 290 132.88 290 173 290 C173 305.84 173 321.68 173 338 C115.91 338 58.82 338 0 338 C0 226.46 0 114.92 0 0 Z " fill="#FFFFFF" transform="translate(513,2)"/>
<path d="M0 0 C17.82 0 35.64 0 54 0 C54 95.7 54 191.4 54 290 C92.94 290 131.88 290 172 290 C172 305.84 172 321.68 172 338 C115.24 338 58.48 338 0 338 C0 226.46 0 114.92 0 0 Z " fill="#FFFFFF" transform="translate(753,2)"/>
<path d="M0 0 C81.18 0 162.36 0 246 0 C246 12.21 246 24.42 246 37 C164.82 37 83.64 37 0 37 C0 24.79 0 12.58 0 0 Z " fill="#A5BB76" transform="translate(211,303)"/>
<path d="M0 0 C73.59 0 147.18 0 223 0 C223 12.21 223 24.42 223 37 C149.41 37 75.82 37 0 37 C0 24.79 0 12.58 0 0 Z " fill="#A4BB76" transform="translate(1350,303)"/>
</svg>
